<svg id="Capa_1" data-name="Capa 1" xmlns="http://www.w3.org/2000/svg" viewBox="0 0 556.01 545.64"><defs><style>.cls-1{fill:#279d2e;}.cls-1,.cls-2{opacity:0.5;}.cls-2{fill:#25b4bd;}.cls-3,.cls-4,.cls-8,.cls-9{fill:none;}.cls-3,.cls-4,.cls-5,.cls-8,.cls-9{stroke:#3c3c3b;stroke-linejoin:round;}.cls-3,.cls-9{stroke-width:11px;}.cls-4,.cls-5,.cls-9{stroke-linecap:round;}.cls-4,.cls-5,.cls-8{stroke-width:11.57px;}.cls-5{fill:#fff;}.cls-6{font-size:86.99px;font-family:EncodeSans-SemiBold, Encode Sans;font-weight:600;}.cls-6,.cls-7{fill:#3c3c3b;}</style></defs><circle class="cls-1" cx="147.04" cy="110.61" r="21.56"/><circle class="cls-1" cx="147.04" cy="46.63" r="21.56"/><rect class="cls-2" x="160.35" y="219.11" width="239.19" height="130.48"/><line class="cls-3" x1="93.12" y1="336.54" x2="93.12" y2="299.71"/><line class="cls-3" x1="74.71" y1="318.12" x2="111.54" y2="318.12"/><rect class="cls-4" x="146.42" y="203.53" width="267.04" height="173.95"/><polygon class="cls-4" points="453.46 424.25 106.42 424.25 146.42 377.49 413.46 377.49 453.46 424.25"/><rect class="cls-5" x="328.41" y="335.92" width="170.11" height="151.98"/><rect class="cls-1" x="331.61" y="380.33" width="163.71" height="102.63"/><rect class="cls-4" x="328.41" y="335.92" width="170.11" height="151.98"/><rect class="cls-5" x="349.71" y="313.85" width="21.01" height="44.46"/><rect class="cls-5" x="402.96" y="313.85" width="21.01" height="44.46"/><rect class="cls-5" x="456.21" y="313.85" width="21.01" height="44.46"/><polyline class="cls-3" points="386.22 427.18 408.05 453.69 446.7 409.6"/><text class="cls-6" transform="translate(253.41 320.37)">$</text><path class="cls-5" d="M216.68,177.92A13.27,13.27,0,0,0,230,164.66"/><path class="cls-5" d="M58.52,187.87a49.83,49.83,0,0,0,32.38,37,9.77,9.77,0,0,1,6.39,9.29v10a3.32,3.32,0,0,0,3.31,3.32h19.9a3.32,3.32,0,0,0,3.32-3.32V231a3.31,3.31,0,0,1,3.32-3.32H160.3a3.32,3.32,0,0,1,3.32,3.32v13.26a3.32,3.32,0,0,0,3.31,3.32h19.9a3.32,3.32,0,0,0,3.32-3.32V222.3a9.77,9.77,0,0,1,3.2-7.28,50.76,50.76,0,0,0,16.57-41.27c-1.89-26-24.52-45.58-50.55-45.58h-45a3.4,3.4,0,0,1-3.08-2.09A29.82,29.82,0,0,0,84,108.27v23.84A3.31,3.31,0,0,1,82.33,135,50,50,0,0,0,65,151.7a6.53,6.53,0,0,1-5.54,3H47.54A3.32,3.32,0,0,0,44.22,158v16.59a13.27,13.27,0,0,0,13.27,13.26Z"/><path class="cls-5" d="M190.07,175.19c-1.1-15.2-14.59-27.12-30.7-27.12"/><circle class="cls-7" cx="88.15" cy="159.68" r="4.97"/><path class="cls-8" d="M166.93,109.91a19.9,19.9,0,1,0-39.79,0"/><line class="cls-9" x1="106.42" y1="442.86" x2="328.41" y2="442.86"/></svg>